<svg width="150" height="171" viewBox="0 0 150 171" fill="none" xmlns="http://www.w3.org/2000/svg">
<path d="M133.338 86.5706V86.571L93.75 123.958L150 170.833V70.8335L133.338 86.5706Z" fill="#13BC8C"/>
<path d="M0 70.8335V170.833L56.25 123.958L0 70.8335Z" fill="#40E4B6"/>
<path d="M56.25 123.958L0 170.833H75V141.667L56.25 123.958Z" fill="#29CFA0"/>
<path d="M75 141.667V170.833H150L93.75 123.958L75 141.667Z" fill="#28C498"/>
<path d="M16.6637 55.0952L0 70.8331H16.6625L16.6637 55.0952Z" fill="#0AD69C"/>
<path d="M150 70.833L133.335 55.0942L133.336 70.833H150Z" fill="#0AD69C"/>
<path d="M74.9998 0L48.4219 25.1012L101.511 25.0383L74.9998 0Z" fill="#0AD69C"/>
<path d="M133.338 86.5706L150 70.8335H133.337L133.338 86.5706Z" fill="#0C926C"/>
<path d="M75 141.667L16.6608 86.5689L16.6625 70.8335H0L56.25 123.958L75 141.667Z" fill="#0C926C"/>
<path d="M16.6606 86.5687L74.9998 141.667L93.7498 123.958L133.337 86.5708L133.336 70.8333L133.335 55.0946L133.333 25L101.511 25.0383L48.4219 25.1013L16.6665 25.1392L16.6636 55.0954L16.6623 70.8333L16.6606 86.5687ZM37.4998 75H112.5V87.5H37.4998V75ZM37.4998 62.5V50H112.5V62.5H37.4998Z" fill="#F2F0E3"/>
<rect x="27.5" y="38.3335" width="89.1667" height="53.3333" fill="#F2F0E3"/>
<path d="M82.0114 48.7929H68.1321C66.8529 48.7929 65.8188 47.7589 65.8188 46.4797C65.8188 45.2005 66.8529 44.1665 68.1321 44.1665H82.0114C83.2906 44.1665 84.3246 45.2005 84.3246 46.4797C84.3246 47.7589 83.2906 48.7929 82.0114 48.7929Z" fill="#ABABAB"/>
<path d="M102.83 85.8042H88.9512C87.6719 85.8042 86.6379 84.7702 86.6379 83.491C86.6379 82.2117 87.6719 81.1777 88.9512 81.1777H102.83C104.11 81.1777 105.144 82.2117 105.144 83.491C105.144 84.7702 104.11 85.8042 102.83 85.8042Z" fill="#ABABAB"/>
<path d="M58.8793 67.2983H47.3132C46.034 67.2983 45 66.2643 45 64.9851C45 63.7059 46.034 62.6719 47.3132 62.6719H58.8793C60.1585 62.6719 61.1925 63.7059 61.1925 64.9851C61.1925 66.2643 60.1585 67.2983 58.8793 67.2983Z" fill="#ABABAB"/>
<path d="M93.5057 69.6264H77.3132C76.034 69.6264 75 68.5924 75 67.3132C75 66.034 76.034 65 77.3132 65H93.5057C94.785 65 95.819 66.034 95.819 67.3132C95.819 68.5924 94.785 69.6264 93.5057 69.6264Z" fill="#ABABAB"/>
<path d="M68.1321 67.2992C67.5306 67.2992 66.9269 67.0447 66.4897 66.6283C66.071 66.1888 65.8188 65.5874 65.8188 64.986C65.8188 64.3845 66.071 63.7808 66.4897 63.3436C67.3456 62.4877 68.9186 62.4877 69.7744 63.3436C70.1908 63.7808 70.4453 64.3845 70.4453 64.986C70.4453 65.5874 70.1908 66.1888 69.7744 66.6283C69.3349 67.0447 68.7335 67.2992 68.1321 67.2992Z" fill="#ABABAB"/>
<path d="M79.6983 85.8042H56.5661C55.2869 85.8042 54.2529 84.7702 54.2529 83.491C54.2529 82.2117 55.2869 81.1777 56.5661 81.1777H79.6983C80.9775 81.1777 82.0116 82.2117 82.0116 83.491C82.0116 84.7702 80.9775 85.8042 79.6983 85.8042Z" fill="#ABABAB"/>
<path d="M47.3132 85.8046C46.7118 85.8046 46.108 85.5501 45.6708 85.1337C45.2521 84.6942 45 84.0928 45 83.4913C45 82.8899 45.2521 82.2861 45.6708 81.849C46.5267 80.9931 48.0766 80.9931 48.9556 81.849C49.372 82.2861 49.6264 82.8899 49.6264 83.4913C49.6264 84.0928 49.372 84.6942 48.9556 85.1337C48.5161 85.5709 47.9147 85.8046 47.3132 85.8046Z" fill="#ABABAB"/>
<path d="M102.83 67.2992C102.229 67.2992 101.625 67.0447 101.188 66.6283C100.769 66.1888 100.517 65.5874 100.517 64.986C100.517 64.3591 100.769 63.7808 101.188 63.3436C102.044 62.4877 103.617 62.4877 104.473 63.3436C104.889 63.7808 105.144 64.3591 105.144 64.986C105.144 65.6105 104.889 66.1888 104.473 66.6283C104.033 67.0447 103.432 67.2992 102.83 67.2992Z" fill="#ABABAB"/>
<path d="M58.8793 104.31H47.3132C46.034 104.31 45 103.276 45 101.997C45 100.718 46.034 99.6836 47.3132 99.6836H58.8793C60.1585 99.6836 61.1925 100.718 61.1925 101.997C61.1925 103.276 60.1585 104.31 58.8793 104.31Z" fill="#ABABAB"/>
<path d="M93.5775 104.31H77.385C76.1058 104.31 75.0718 103.276 75.0718 101.997C75.0718 100.718 76.1058 99.6836 77.385 99.6836H93.5775C94.8567 99.6836 95.8907 100.718 95.8907 101.997C95.8907 103.276 94.8567 104.31 93.5775 104.31Z" fill="#ABABAB"/>
<path d="M68.1321 104.31C67.5052 104.31 66.9269 104.056 66.4897 103.64C66.071 103.2 65.8188 102.599 65.8188 101.997C65.8188 101.37 66.071 100.792 66.4897 100.355C67.3456 99.4989 68.8954 99.4989 69.7744 100.355C70.1908 100.792 70.4453 101.396 70.4453 101.997C70.4453 102.599 70.1908 103.2 69.7744 103.64C69.3349 104.056 68.7335 104.31 68.1321 104.31Z" fill="#ABABAB"/>
<path d="M102.83 104.31C102.229 104.31 101.625 104.056 101.188 103.64C100.769 103.2 100.517 102.599 100.517 101.997C100.517 101.396 100.769 100.792 101.188 100.355C102.044 99.4989 103.617 99.4989 104.473 100.355C104.889 100.792 105.144 101.396 105.144 101.997C105.144 102.599 104.889 103.2 104.473 103.64C104.033 104.056 103.455 104.31 102.83 104.31Z" fill="#ABABAB"/>
</svg>
