<svg width="7" height="10" viewBox="0 0 7 10" fill="none" xmlns="http://www.w3.org/2000/svg">
<path d="M3.49985 0C1.57013 0 3.63724e-08 1.57013 3.63724e-08 3.50005C3.63724e-08 4.00345 0.103034 4.48408 0.306086 4.92871C1.18115 6.84355 2.85888 8.86522 3.35236 9.43916C3.38933 9.48207 3.44323 9.50678 3.49995 9.50678C3.55667 9.50678 3.61057 9.48207 3.64755 9.43916C4.14083 8.86532 5.81856 6.84375 6.69391 4.92871C6.89706 4.48408 7 4.00345 7 3.50005C6.99981 1.57013 5.42968 0 3.49985 0ZM3.49985 5.31799C2.49744 5.31799 1.68182 4.50237 1.68182 3.49995C1.68182 2.49744 2.49744 1.68182 3.49985 1.68182C4.50227 1.68182 5.31789 2.49744 5.31789 3.49995C5.31798 4.50237 4.50237 5.31799 3.49985 5.31799Z" fill="#2A74DB"/>
</svg>
